<svg width="22" height="22" viewBox="0 0 22 22" fill="none" xmlns="http://www.w3.org/2000/svg">
<g clip-path="url(#clip0_509_740)">
<path d="M10.9881 21.9762C17.05 21.9762 21.9642 17.062 21.9642 11C21.9642 4.93806 17.05 0.0238647 10.9881 0.0238647C4.92609 0.0238647 0.0119019 4.93806 0.0119019 11C0.0119019 17.062 4.92609 21.9762 10.9881 21.9762Z" fill="#0191B1"/>
<path d="M10.9881 0.0238647C10.9045 0.0238647 10.8214 0.0251538 10.7383 0.0270015C10.7172 0.0274741 10.6961 0.0279468 10.675 0.0285913C10.5958 0.0307827 10.5168 0.0337046 10.4381 0.0375718C10.4177 0.0385601 10.3974 0.039978 10.3771 0.0410522C10.3172 0.0443608 10.2575 0.0481421 10.1978 0.052396C10.1677 0.0545444 10.1377 0.0566069 10.1078 0.0589702C10.0386 0.0644702 9.96957 0.0705718 9.90069 0.0773608C9.86507 0.0808843 9.82962 0.0847944 9.79417 0.0886186C9.75159 0.0932593 9.70909 0.0981147 9.66664 0.103228C9.62986 0.107654 9.59299 0.111908 9.55634 0.116677C14.9418 0.818228 19.1008 5.42323 19.1008 10.9999C19.1008 16.5765 14.9418 21.1816 9.55638 21.8831C9.59307 21.8879 9.62986 21.8922 9.66668 21.8966C9.70909 21.9017 9.75163 21.9066 9.79421 21.9112C9.8297 21.9151 9.8652 21.919 9.90073 21.9225C9.96961 21.9292 10.0386 21.9353 10.1078 21.9408C10.1377 21.9433 10.1678 21.9453 10.1978 21.9474C10.2575 21.9517 10.3172 21.9555 10.3772 21.9588C10.3975 21.9599 10.4178 21.9613 10.4381 21.9622C10.5169 21.9661 10.5959 21.969 10.675 21.9712C10.6961 21.9718 10.7172 21.9723 10.7384 21.9728C10.8214 21.9747 10.9046 21.976 10.9881 21.976C17.0501 21.976 21.9642 17.0617 21.9642 10.9998C21.9642 4.93786 17.05 0.0238647 10.9881 0.0238647Z" fill="#047D98"/>
<path d="M9.55638 10.0455L14.1353 7.41792C14.1353 7.41792 19.1441 8.48479 20.3001 6.37537L20.6647 5.71008L20.9818 6.3993C21.6401 7.83033 21.9881 9.42125 21.9881 11C21.9881 14.6391 20.1856 18.0397 17.1663 20.0966L16.8548 20.3089L9.55638 10.0455Z" fill="#6DE5FF"/>
<path d="M21.9642 11C21.9642 9.10324 21.483 7.31884 20.6361 5.76221L20.3001 6.37533C19.894 7.11632 19.3596 7.87399 18.8269 8.55561C19.0058 9.34172 19.1008 10.1598 19.1008 11C19.1008 14.0653 17.8441 16.8366 15.818 18.8279L16.8429 20.3174C19.922 18.3734 21.9642 14.9107 21.9642 11Z" fill="#047D98"/>
<path d="M10.9881 22C7.23022 22 3.76887 20.1059 1.72897 16.9333L1.53445 16.6308L7.64749 11.4772L14.6832 21.3653L14.2349 21.5107C13.186 21.8354 12.0936 22 10.9881 22Z" fill="#36D4F7"/>
<path d="M14.7276 21.3481L13.9835 20.2827C12.67 21.1134 11.1637 21.697 9.55186 21.9069C10.0205 21.9679 10.5028 21.9762 10.9881 21.9762C12.2964 21.9762 13.5641 21.768 14.7276 21.3481Z" fill="#047D98"/>
<path d="M7.64749 11.4772L9.55638 10.0455L16.8957 20.284L16.5389 20.4934C16.0349 20.7892 15.5045 21.046 14.9624 21.2568L14.6832 21.3653L7.64749 11.4772Z" fill="white"/>
<path d="M14.6832 21.3653C15.4652 21.0871 16.2067 20.7232 16.8956 20.2841L15.838 18.8086C15.2624 19.3772 14.6242 19.8825 13.9348 20.3135L14.6832 21.3653Z" fill="#E0E0E3"/>
<path d="M1.34794 16.2933C1.04672 15.7468 0.790889 15.1712 0.587561 14.5825L0.496811 14.2363L13.3742 5.27332L15.283 6.70499L1.53451 16.6307L1.34794 16.2933Z" fill="#19BCE0"/>
<path d="M16.4389 10.7515C15.7638 10.0464 12.3958 6.42224 12.3958 4.31887C12.3958 1.93742 14.3333 0 16.7147 0C19.0961 0 21.0336 1.93742 21.0336 4.31887C21.0336 6.42082 17.6656 10.0461 16.9904 10.7515C16.8402 10.9085 16.5893 10.9085 16.4389 10.7515Z" fill="#AFF1FF"/>
<path d="M16.7147 5.7744C15.649 5.7744 14.782 4.90738 14.782 3.84167C14.782 2.77596 15.649 1.90894 16.7147 1.90894C17.7805 1.90894 18.6475 2.77596 18.6475 3.84167C18.6475 4.90738 17.7805 5.7744 16.7147 5.7744Z" fill="white"/>
<path d="M6.21582 8.01737C7.46569 8.01737 8.48264 7.00047 8.48264 5.75056C8.48264 5.5529 8.3224 5.39263 8.12471 5.39263H6.69303C6.49537 5.39263 6.3351 5.55286 6.3351 5.75056C6.3351 5.94821 6.49533 6.10849 6.69303 6.10849H7.72505C7.5631 6.79173 6.94783 7.30156 6.21578 7.30156C5.36061 7.30156 4.66482 6.60576 4.66482 5.7506C4.66482 4.89543 5.36061 4.19964 6.21578 4.19964C6.5939 4.19964 6.95806 4.33723 7.24122 4.58701C7.38955 4.7178 7.6157 4.70358 7.74641 4.55538C7.87716 4.40714 7.86298 4.18095 7.71478 4.0502C7.30074 3.68496 6.7684 3.48383 6.21578 3.48383C4.9659 3.48383 3.94896 4.50072 3.94896 5.75064C3.94896 7.00056 4.9659 8.01737 6.21582 8.01737Z" fill="white"/>
</g>
<defs>
<clipPath id="clip0_509_740">
<rect width="22" height="22" fill="white"/>
</clipPath>
</defs>
</svg>
