<svg width="22" height="22" viewBox="0 0 22 22" fill="none" xmlns="http://www.w3.org/2000/svg">
<g clip-path="url(#clip0_508_200)">
<path d="M17.3798 4.19049H16.144C15.9067 4.19049 15.7143 4.38287 15.7143 4.62018V4.80842C15.7143 5.04573 15.9067 5.23811 16.144 5.23811H17.3798C17.6171 5.23811 17.8095 5.04573 17.8095 4.80842V4.62018C17.8095 4.38287 17.6171 4.19049 17.3798 4.19049Z" fill="#36D4F7"/>
<path d="M5.85603 20.9524H0.429687C0.192378 20.9524 0 21.1448 0 21.3821V21.5703C0 21.8076 0.192378 22 0.429687 22H5.85603C6.09334 22 6.28571 21.8076 6.28571 21.5703V21.3821C6.28571 21.1448 6.09334 20.9524 5.85603 20.9524Z" fill="#7DE8FF"/>
<path d="M16.3322 12.5714H13.0011C12.7638 12.5714 12.5714 12.7638 12.5714 13.0011V13.1894C12.5714 13.4267 12.7638 13.6191 13.0011 13.6191H16.3322C16.5695 13.6191 16.7619 13.4267 16.7619 13.1894V13.0011C16.7619 12.7638 16.5695 12.5714 16.3322 12.5714Z" fill="#AFF1FF"/>
<path d="M11.0941 12.5714H6.7154C6.47809 12.5714 6.28571 12.7638 6.28571 13.0011V13.1894C6.28571 13.4267 6.47809 13.6191 6.7154 13.6191H11.0941C11.3314 13.6191 11.5238 13.4267 11.5238 13.1894V13.0011C11.5238 12.7638 11.3314 12.5714 11.0941 12.5714Z" fill="#7DE8FF"/>
<path d="M4.80841 12.5714H0.429688C0.192378 12.5714 0 12.7638 0 13.0011V13.1894C0 13.4267 0.192378 13.6191 0.429688 13.6191H4.80841C5.04572 13.6191 5.2381 13.4267 5.2381 13.1894V13.0011C5.2381 12.7638 5.04572 12.5714 4.80841 12.5714Z" fill="#36D4F7"/>
<path d="M5.85603 16.7619H0.429687C0.192378 16.7619 0 16.9543 0 17.1916V17.3798C0 17.6171 0.192378 17.8095 0.429687 17.8095H5.85603C6.09334 17.8095 6.28571 17.6171 6.28571 17.3798V17.1916C6.28571 16.9543 6.09334 16.7619 5.85603 16.7619Z" fill="#AFF1FF"/>
<path d="M5.85603 8.38095H0.429687C0.192378 8.38095 0 8.57333 0 8.81064V8.99888C0 9.23619 0.192378 9.42857 0.429687 9.42857H5.85603C6.09334 9.42857 6.28571 9.23619 6.28571 8.99888V8.81064C6.28571 8.57333 6.09334 8.38095 5.85603 8.38095Z" fill="#AFF1FF"/>
<path d="M16.3322 2.09525H5.66779C5.43048 2.09525 5.2381 2.28762 5.2381 2.52493V2.71318C5.2381 2.95049 5.43048 3.14286 5.66779 3.14286H16.3322C16.5695 3.14286 16.7619 2.95049 16.7619 2.71318V2.52493C16.7619 2.28762 16.5695 2.09525 16.3322 2.09525Z" fill="#279AB4"/>
<path d="M3.76079 2.09525H0.429688C0.192378 2.09525 0 2.28762 0 2.52493V2.71318C0 2.95049 0.192378 3.14286 0.429688 3.14286H3.76079C3.9981 3.14286 4.19048 2.95049 4.19048 2.71318V2.52493C4.19048 2.28762 3.9981 2.09525 3.76079 2.09525Z" fill="#7DE8FF"/>
<path d="M5.85603 18.8571H4.62016C4.38285 18.8571 4.19048 19.0495 4.19048 19.2868V19.4751C4.19048 19.7124 4.38285 19.9048 4.62016 19.9048H5.85603C6.09334 19.9048 6.28571 19.7124 6.28571 19.4751V19.2868C6.28571 19.0495 6.09334 18.8571 5.85603 18.8571Z" fill="#279AB4"/>
<path d="M5.85603 6.28571H4.62016C4.38285 6.28571 4.19048 6.47808 4.19048 6.71539V6.90364C4.19048 7.14095 4.38285 7.33332 4.62016 7.33332H5.85603C6.09334 7.33332 6.28571 7.14095 6.28571 6.90364V6.71539C6.28571 6.47808 6.09334 6.28571 5.85603 6.28571Z" fill="#36D4F7"/>
<path d="M2.71317 18.8571H0.429687C0.192378 18.8571 0 19.0495 0 19.2868V19.4751C0 19.7124 0.192378 19.9048 0.429687 19.9048H2.71317C2.95048 19.9048 3.14286 19.7124 3.14286 19.4751V19.2868C3.14286 19.0495 2.95048 18.8571 2.71317 18.8571Z" fill="#36D4F7"/>
<path d="M2.71317 6.28571H0.429687C0.192378 6.28571 0 6.47808 0 6.71539V6.90364C0 7.14095 0.192378 7.33332 0.429687 7.33332H2.71317C2.95048 7.33332 3.14286 7.14095 3.14286 6.90364V6.71539C3.14286 6.47808 2.95048 6.28571 2.71317 6.28571Z" fill="#279AB4"/>
<path opacity="0.5" d="M15.2846 18.8571H14.0487C13.8114 18.8571 13.619 19.0495 13.619 19.2868V19.4751C13.619 19.7124 13.8114 19.9048 14.0487 19.9048H15.2846C15.5219 19.9048 15.7143 19.7124 15.7143 19.4751V19.2868C15.7143 19.0495 15.5219 18.8571 15.2846 18.8571Z" fill="#373738"/>
<path opacity="0.5" d="M12.1417 18.8571H7.76302C7.52571 18.8571 7.33334 19.0495 7.33334 19.2868V19.4751C7.33334 19.7124 7.52571 19.9048 7.76302 19.9048H12.1417C12.3791 19.9048 12.5714 19.7124 12.5714 19.4751V19.2868C12.5714 19.0495 12.3791 18.8571 12.1417 18.8571Z" fill="#373738"/>
<path opacity="0.5" d="M21.5703 18.8571H17.1916C16.9543 18.8571 16.7619 19.0495 16.7619 19.2868V19.4751C16.7619 19.7124 16.9543 19.9048 17.1916 19.9048H21.5703C21.8076 19.9048 22 19.7124 22 19.4751V19.2868C22 19.0495 21.8076 18.8571 21.5703 18.8571Z" fill="#373738"/>
<path d="M17.3798 10.4762H8.81064C8.57333 10.4762 8.38095 10.6686 8.38095 10.9059V11.0941C8.38095 11.3314 8.57333 11.5238 8.81064 11.5238H17.3798C17.6171 11.5238 17.8095 11.3314 17.8095 11.0941V10.9059C17.8095 10.6686 17.6171 10.4762 17.3798 10.4762Z" fill="#36D4F7"/>
<path d="M6.90365 10.4762H3.57255C3.33524 10.4762 3.14286 10.6686 3.14286 10.9059V11.0941C3.14286 11.3314 3.33524 11.5238 3.57255 11.5238H6.90365C7.14096 11.5238 7.33334 11.3314 7.33334 11.0941V10.9059C7.33334 10.6686 7.14096 10.4762 6.90365 10.4762Z" fill="#279AB4"/>
<path d="M1.66555 10.4762H0.429688C0.192378 10.4762 0 10.6686 0 10.9059V11.0941C0 11.3314 0.192378 11.5238 0.429688 11.5238H1.66555C1.90286 11.5238 2.09524 11.3314 2.09524 11.0941V10.9059C2.09524 10.6686 1.90286 10.4762 1.66555 10.4762Z" fill="#7DE8FF"/>
<path d="M14.237 4.19049H9.85826C9.62095 4.19049 9.42857 4.38287 9.42857 4.62018V4.80842C9.42857 5.04573 9.62095 5.23811 9.85826 5.23811H14.237C14.4743 5.23811 14.6667 5.04573 14.6667 4.80842V4.62018C14.6667 4.38287 14.4743 4.19049 14.237 4.19049Z" fill="#AFF1FF"/>
<path d="M7.95126 4.19049H0.429688C0.192378 4.19049 0 4.38287 0 4.62018V4.80842C0 5.04573 0.192378 5.23811 0.429688 5.23811H7.95126C8.18857 5.23811 8.38095 5.04573 8.38095 4.80842V4.62018C8.38095 4.38287 8.18857 4.19049 7.95126 4.19049Z" fill="#36D4F7"/>
<path d="M13.1894 14.6667H3.57255C3.33524 14.6667 3.14286 14.859 3.14286 15.0963V15.2846C3.14286 15.5219 3.33524 15.7143 3.57255 15.7143H13.1894C13.4267 15.7143 13.6191 15.5219 13.6191 15.2846V15.0963C13.6191 14.859 13.4267 14.6667 13.1894 14.6667Z" fill="#279AB4"/>
<path d="M1.66555 14.6667H0.429688C0.192378 14.6667 0 14.859 0 15.0963V15.2846C0 15.5219 0.192378 15.7143 0.429688 15.7143H1.66555C1.90286 15.7143 2.09524 15.5219 2.09524 15.2846V15.0963C2.09524 14.859 1.90286 14.6667 1.66555 14.6667Z" fill="#AFF1FF"/>
<path d="M18.4275 6.28571H13.0011C12.7638 6.28571 12.5714 6.47808 12.5714 6.71539V6.90364C12.5714 7.14095 12.7638 7.33332 13.0011 7.33332H18.4275C18.6648 7.33332 18.8571 7.14095 18.8571 6.90364V6.71539C18.8571 6.47808 18.6648 6.28571 18.4275 6.28571Z" fill="#7DE8FF"/>
<path d="M18.4275 8.38095H13.0011C12.7638 8.38095 12.5714 8.57333 12.5714 8.81064V8.99888C12.5714 9.23619 12.7638 9.42857 13.0011 9.42857H18.4275C18.6648 9.42857 18.8571 9.23619 18.8571 8.99888V8.81064C18.8571 8.57333 18.6648 8.38095 18.4275 8.38095Z" fill="#279AB4"/>
<path d="M13.1894 0H0.429688C0.192378 0 0 0.192378 0 0.429688V0.617932C0 0.855241 0.192378 1.04762 0.429688 1.04762H13.1894C13.4267 1.04762 13.619 0.855241 13.619 0.617932V0.429688C13.619 0.192378 13.4267 0 13.1894 0Z" fill="#36D4F7"/>
<path opacity="0.5" d="M21.5703 0H15.0964C14.859 0 14.6667 0.192378 14.6667 0.429688V0.617932C14.6667 0.855241 14.859 1.04762 15.0964 1.04762H21.5703C21.8076 1.04762 22 0.855241 22 0.617932V0.429688C22 0.192378 21.8076 0 21.5703 0Z" fill="#373738"/>
<path opacity="0.5" d="M17.3798 14.6667H15.0964C14.859 14.6667 14.6667 14.859 14.6667 15.0963V15.2846C14.6667 15.5219 14.859 15.7143 15.0964 15.7143H17.3798C17.6172 15.7143 17.8095 15.5219 17.8095 15.2846V15.0963C17.8095 14.859 17.6172 14.6667 17.3798 14.6667Z" fill="#373738"/>
<path opacity="0.5" d="M21.5703 14.6667H19.2868C19.0495 14.6667 18.8571 14.859 18.8571 15.0963V15.2846C18.8571 15.5219 19.0495 15.7143 19.2868 15.7143H21.5703C21.8076 15.7143 22 15.5219 22 15.2846V15.0963C22 14.859 21.8076 14.6667 21.5703 14.6667Z" fill="#373738"/>
<path opacity="0.5" d="M21.5703 12.5714H18.2392C18.0019 12.5714 17.8095 12.7638 17.8095 13.0011V13.1894C17.8095 13.4267 18.0019 13.6191 18.2392 13.6191H21.5703C21.8076 13.6191 22 13.4267 22 13.1894V13.0011C22 12.7638 21.8076 12.5714 21.5703 12.5714Z" fill="#373738"/>
<path opacity="0.5" d="M21.5703 2.09525H18.2392C18.0019 2.09525 17.8095 2.28762 17.8095 2.52493V2.71318C17.8095 2.95049 18.0019 3.14286 18.2392 3.14286H21.5703C21.8076 3.14286 22 2.95049 22 2.71318V2.52493C22 2.28762 21.8076 2.09525 21.5703 2.09525Z" fill="#373738"/>
<path opacity="0.5" d="M21.5703 10.4762H19.2868C19.0495 10.4762 18.8571 10.6686 18.8571 10.9059V11.0941C18.8571 11.3314 19.0495 11.5238 19.2868 11.5238H21.5703C21.8076 11.5238 22 11.3314 22 11.0941V10.9059C22 10.6686 21.8076 10.4762 21.5703 10.4762Z" fill="#373738"/>
<path opacity="0.5" d="M21.5703 4.19049H19.2868C19.0495 4.19049 18.8571 4.38287 18.8571 4.62018V4.80842C18.8571 5.04573 19.0495 5.23811 19.2868 5.23811H21.5703C21.8076 5.23811 22 5.04573 22 4.80842V4.62018C22 4.38287 21.8076 4.19049 21.5703 4.19049Z" fill="#373738"/>
<path opacity="0.5" d="M21.5703 6.28571H20.3344C20.0971 6.28571 19.9048 6.47808 19.9048 6.71539V6.90364C19.9048 7.14095 20.0971 7.33332 20.3344 7.33332H21.5703C21.8076 7.33332 22 7.14095 22 6.90364V6.71539C22 6.47808 21.8076 6.28571 21.5703 6.28571Z" fill="#373738"/>
<path opacity="0.5" d="M21.5703 8.38095H20.3344C20.0971 8.38095 19.9048 8.57333 19.9048 8.81064V8.99888C19.9048 9.23619 20.0971 9.42857 20.3344 9.42857H21.5703C21.8076 9.42857 22 9.23619 22 8.99888V8.81064C22 8.57333 21.8076 8.38095 21.5703 8.38095Z" fill="#373738"/>
<path opacity="0.5" d="M21.5703 16.7619H11.9535C11.7162 16.7619 11.5238 16.9543 11.5238 17.1916V17.3798C11.5238 17.6171 11.7162 17.8095 11.9535 17.8095H21.5703C21.8076 17.8095 22 17.6171 22 17.3798V17.1916C22 16.9543 21.8076 16.7619 21.5703 16.7619Z" fill="#373738"/>
<path opacity="0.5" d="M10.0465 16.7619H7.76302C7.52571 16.7619 7.33334 16.9543 7.33334 17.1916V17.3798C7.33334 17.6171 7.52571 17.8095 7.76302 17.8095H10.0465C10.2838 17.8095 10.4762 17.6171 10.4762 17.3798V17.1916C10.4762 16.9543 10.2838 16.7619 10.0465 16.7619Z" fill="#373738"/>
<path opacity="0.5" d="M21.5703 20.9524H16.144C15.9067 20.9524 15.7143 21.1448 15.7143 21.3821V21.5703C15.7143 21.8076 15.9067 22 16.144 22H21.5703C21.8076 22 22 21.8076 22 21.5703V21.3821C22 21.1448 21.8076 20.9524 21.5703 20.9524Z" fill="#373738"/>
<path opacity="0.5" d="M14.237 20.9524H7.76302C7.52571 20.9524 7.33334 21.1448 7.33334 21.3821V21.5703C7.33334 21.8076 7.52571 22 7.76302 22H14.237C14.4743 22 14.6667 21.8076 14.6667 21.5703V21.3821C14.6667 21.1448 14.4743 20.9524 14.237 20.9524Z" fill="#373738"/>
<path opacity="0.5" d="M11.0941 6.28571H7.76302C7.52571 6.28571 7.33334 6.47808 7.33334 6.71539V6.90364C7.33334 7.14095 7.52571 7.33332 7.76302 7.33332H11.0941C11.3314 7.33332 11.5238 7.14095 11.5238 6.90364V6.71539C11.5238 6.47808 11.3314 6.28571 11.0941 6.28571Z" fill="#373738"/>
<path opacity="0.5" d="M11.0941 8.38095H7.76302C7.52571 8.38095 7.33334 8.57333 7.33334 8.81064V8.99888C7.33334 9.23619 7.52571 9.42857 7.76302 9.42857H11.0941C11.3314 9.42857 11.5238 9.23619 11.5238 8.99888V8.81064C11.5238 8.57333 11.3314 8.38095 11.0941 8.38095Z" fill="#373738"/>
</g>
<defs>
<clipPath id="clip0_508_200">
<rect width="22" height="22" fill="white"/>
</clipPath>
</defs>
</svg>
